<svg width="459" height="113" viewBox="0 0 459 113" fill="none" xmlns="http://www.w3.org/2000/svg">
<path d="M154.7 83.525C150.85 83.525 147.4 82.9 144.35 81.65C141.3 80.4 138.85 78.55 137 76.1C135.2 73.65 134.25 70.7 134.15 67.25H147.8C148 69.2 148.675 70.7 149.825 71.75C150.975 72.75 152.475 73.25 154.325 73.25C156.225 73.25 157.725 72.825 158.825 71.975C159.925 71.075 160.475 69.85 160.475 68.3C160.475 67 160.025 65.925 159.125 65.075C158.275 64.225 157.2 63.525 155.9 62.975C154.65 62.425 152.85 61.8 150.5 61.1C147.1 60.05 144.325 59 142.175 57.95C140.025 56.9 138.175 55.35 136.625 53.3C135.075 51.25 134.3 48.575 134.3 45.275C134.3 40.375 136.075 36.55 139.625 33.8C143.175 31 147.8 29.6 153.5 29.6C159.3 29.6 163.975 31 167.525 33.8C171.075 36.55 172.975 40.4 173.225 45.35H159.35C159.25 43.65 158.625 42.325 157.475 41.375C156.325 40.375 154.85 39.875 153.05 39.875C151.5 39.875 150.25 40.3 149.3 41.15C148.35 41.95 147.875 43.125 147.875 44.675C147.875 46.375 148.675 47.7 150.275 48.65C151.875 49.6 154.375 50.625 157.775 51.725C161.175 52.875 163.925 53.975 166.025 55.025C168.175 56.075 170.025 57.6 171.575 59.6C173.125 61.6 173.9 64.175 173.9 67.325C173.9 70.325 173.125 73.05 171.575 75.5C170.075 77.95 167.875 79.9 164.975 81.35C162.075 82.8 158.65 83.525 154.7 83.525ZM196.168 47.075C197.418 45.125 199.143 43.55 201.343 42.35C203.543 41.15 206.118 40.55 209.068 40.55C212.518 40.55 215.643 41.425 218.443 43.175C221.243 44.925 223.443 47.425 225.043 50.675C226.693 53.925 227.518 57.7 227.518 62C227.518 66.3 226.693 70.1 225.043 73.4C223.443 76.65 221.243 79.175 218.443 80.975C215.643 82.725 212.518 83.6 209.068 83.6C206.168 83.6 203.593 83 201.343 81.8C199.143 80.6 197.418 79.05 196.168 77.15V102.95H183.343V41.15H196.168V47.075ZM214.468 62C214.468 58.8 213.568 56.3 211.768 54.5C210.018 52.65 207.843 51.725 205.243 51.725C202.693 51.725 200.518 52.65 198.718 54.5C196.968 56.35 196.093 58.875 196.093 62.075C196.093 65.275 196.968 67.8 198.718 69.65C200.518 71.5 202.693 72.425 205.243 72.425C207.793 72.425 209.968 71.5 211.768 69.65C213.568 67.75 214.468 65.2 214.468 62ZM248.621 27.5V83H235.796V27.5H248.621ZM265.915 36.8C263.665 36.8 261.815 36.15 260.365 34.85C258.965 33.5 258.265 31.85 258.265 29.9C258.265 27.9 258.965 26.25 260.365 24.95C261.815 23.6 263.665 22.925 265.915 22.925C268.115 22.925 269.915 23.6 271.315 24.95C272.765 26.25 273.49 27.9 273.49 29.9C273.49 31.85 272.765 33.5 271.315 34.85C269.915 36.15 268.115 36.8 265.915 36.8ZM272.29 41.15V83H259.465V41.15H272.29ZM306.459 72.125V83H299.934C295.284 83 291.659 81.875 289.059 79.625C286.459 77.325 285.159 73.6 285.159 68.45V51.8H280.059V41.15H285.159V30.95H297.984V41.15H306.384V51.8H297.984V68.6C297.984 69.85 298.284 70.75 298.884 71.3C299.484 71.85 300.484 72.125 301.884 72.125H306.459ZM355.278 47.3C355.278 50.35 354.578 53.15 353.178 55.7C351.778 58.2 349.628 60.225 346.728 61.775C343.828 63.325 340.228 64.1 335.928 64.1H327.978V83H315.153V30.35H335.928C340.128 30.35 343.678 31.075 346.578 32.525C349.478 33.975 351.653 35.975 353.103 38.525C354.553 41.075 355.278 44 355.278 47.3ZM334.953 53.9C337.403 53.9 339.228 53.325 340.428 52.175C341.628 51.025 342.228 49.4 342.228 47.3C342.228 45.2 341.628 43.575 340.428 42.425C339.228 41.275 337.403 40.7 334.953 40.7H327.978V53.9H334.953ZM360.955 62C360.955 57.7 361.755 53.925 363.355 50.675C365.005 47.425 367.23 44.925 370.03 43.175C372.83 41.425 375.955 40.55 379.405 40.55C382.355 40.55 384.93 41.15 387.13 42.35C389.38 43.55 391.105 45.125 392.305 47.075V41.15H405.13V83H392.305V77.075C391.055 79.025 389.305 80.6 387.055 81.8C384.855 83 382.28 83.6 379.33 83.6C375.93 83.6 372.83 82.725 370.03 80.975C367.23 79.175 365.005 76.65 363.355 73.4C361.755 70.1 360.955 66.3 360.955 62ZM392.305 62.075C392.305 58.875 391.405 56.35 389.605 54.5C387.855 52.65 385.705 51.725 383.155 51.725C380.605 51.725 378.43 52.65 376.63 54.5C374.88 56.3 374.005 58.8 374.005 62C374.005 65.2 374.88 67.75 376.63 69.65C378.43 71.5 380.605 72.425 383.155 72.425C385.705 72.425 387.855 71.5 389.605 69.65C391.405 67.8 392.305 65.275 392.305 62.075ZM458.708 41.15L432.458 102.875H418.658L428.258 81.575L411.233 41.15H425.558L435.233 67.325L444.833 41.15H458.708Z" fill="white"/>
<circle cx="37.5" cy="56.5" r="37.5" fill="#393E46"/>
<circle cx="71.5" cy="56.5" r="37.5" fill="#E57B28"/>
</svg>
